<?xml version="1.0" encoding="UTF-8" standalone="no"?>
<!-- Created with Inkscape (http://www.inkscape.org/) -->
<svg
   xmlns:svg="http://www.w3.org/2000/svg"
   xmlns="http://www.w3.org/2000/svg"
   xmlns:xlink="http://www.w3.org/1999/xlink"
   version="1.0"
   width="1024"
   height="731"
   viewBox="0 0 1024 732"
   id="svg2160">
  <defs
     id="defs2162">
    <linearGradient
       id="linearGradient13863">
      <stop
         style="stop-color:white;stop-opacity:1"
         offset="0"
         id="stop13865" />
      <stop
         style="stop-color:white;stop-opacity:0.49803922"
         offset="0.5"
         id="stop13871" />
      <stop
         style="stop-color:black;stop-opacity:1"
         offset="1"
         id="stop13867" />
    </linearGradient>
    <linearGradient
       x1="453.71942"
       y1="481.09375"
       x2="912.24933"
       y2="481.09375"
       id="linearGradient13869"
       xlink:href="#linearGradient13863"
       gradientUnits="userSpaceOnUse"
       gradientTransform="matrix(1.001368,0,0,1.001368,-0.70041,-4.11885)" />
    <linearGradient
       x1="753.26941"
       y1="112.45847"
       x2="917.91412"
       y2="327.68658"
       id="linearGradient14853"
       xlink:href="#linearGradient13863"
       gradientUnits="userSpaceOnUse"
       gradientTransform="matrix(1.001368,0,0,1.001368,-25.41351,17.84835)" />
  </defs>
     
  <g id="Brain_stem" style="fill:white;fill-rule:evenodd;stroke:black;stroke-width:2">
    <path
       d="M 518,579 C 525,607 538,626 559,634 C 589,648 612,682 636,712 C 649,705 663,699 674,689 L 560,553 L 518,579 z "
       id="path2171" />
    <path
       d="M 551,571 C 551,577 552,583 558,589 C 560,623 573,634 591,634 C 671,685 732,688 778,658 C 797,647 827,636 829,625 C 851,614 864,603 876,592 C 895,576 895,548 887,513 C 697,507 601,532 551,571 z "
       id="path2173" />
    <path
       d="M 472.62412,552.48678 L 499.0534,589.89967 L 519.64765,584.75111 L 543.67428,573.76751 L 564.95501,565.52981 L 581.43041,554.54621 C 581.43041,554.54621 583.48983,556.60563 592.75724,558.32182 C 602.02466,560.03801 638.75107,553.51649 638.75107,553.51649 C 638.75107,553.51649 675.13425,550.08412 685.77461,547.33822 C 696.41497,544.59232 711.51742,536.35462 711.51742,536.35462 C 711.51742,536.35462 727.99282,533.60872 739.31966,527.77368 C 750.6465,521.93864 757.51125,516.44684 757.51125,516.44684 C 757.51125,516.44684 787.37291,526.74397 802.47536,526.40073 C 817.57781,526.05749 832.68026,520.90893 832.68026,520.90893 L 839.54501,517.13332 C 839.54501,517.13332 871.4661,521.59541 892.40359,517.13332 C 913.34108,512.67123 926.3841,508.20914 932.56238,503.74706 C 938.74065,499.28497 686.46108,493.44993 686.46108,493.44993 L 472.62412,552.48678 z "
       style="stroke:none"
       id="path2845" />
  </g>
  <g id="Highlighted_Regions">
    <path
     style="fill:#a0f4a4;fill-opacity:0.70454544;fill-rule:evenodd;stroke:none;stroke-width:1px;stroke-linecap:butt;stroke-linejoin:miter;stroke-opacity:1"
     d="M 711.17418,270.38718 C 711.17418,270.38718 728.85092,252.36722 725.24692,240.3539 C 721.64293,228.34059 707.57019,208.60443 702.42163,204.82882 C 697.27307,201.05321 678.395,179.60086 678.395,179.60086 C 678.395,179.60086 672.9032,173.07935 676.16396,166.55784 C 679.42472,160.03632 694.35555,141.32988 694.35555,141.32988 C 682.58182,128.34085 694.42973,141.03356 682.51385,128.37519 C 682.51385,128.37519 683.20033,123.30991 681.999,120.22077 C 680.79767,117.13164 671.0154,106.83451 671.0154,106.83451 C 671.0154,106.83451 675.47748,99.11167 679.76795,97.39549 C 684.05842,95.6793 703.27972,91.045592 712.89037,90.530736 C 722.50102,90.01588 728.85092,89.157786 728.85092,89.157786 C 728.85092,89.157786 767.1219,108.37908 778.44874,117.98973 C 789.77557,127.60038 809.16849,143.38931 811.74278,148.19463 C 814.31706,152.99996 817.06296,154.20129 817.06296,154.20129 C 817.06296,154.20129 843.49224,162.26737 856.70689,178.05629 C 869.92153,193.84522 867.69049,206.37339 867.69049,206.37339 C 867.69049,206.37339 885.71046,217.70023 893.60492,229.3703 C 901.49938,241.04038 905.96147,255.28473 905.96147,255.28473 C 905.96147,255.28473 920.8923,264.38053 927.58543,273.64794 C 934.27857,282.91535 929.9881,293.3841 929.9881,293.3841 C 929.9881,293.3841 944.74731,305.05417 950.06749,315.3513 C 955.38767,325.64842 957.27548,341.43735 957.27548,341.43735 C 957.27548,341.43735 980.61563,364.43426 980.27239,377.30567 C 979.92916,390.17708 975.8103,389.83384 975.8103,389.83384 C 975.8103,389.83384 981.64534,409.05514 980.95887,418.66579 C 980.27239,428.27644 973.40764,438.23033 973.40764,438.23033 C 973.40764,438.23033 966.02804,467.2339 961.73757,472.55408 C 957.4471,477.87426 947.14997,493.49157 947.14997,493.49157 L 904.07367,479.24721 L 862.71355,470.66627 C 862.71355,470.66627 844.52196,441.83432 841.43282,431.88043 C 838.34368,421.92654 838.00044,407.33895 838.00044,407.33895 L 828.90465,350.70476 L 833.57307,324.90661 L 803.86856,367.82028 L 776.07877,364.05835 C 776.07877,364.05835 780.16492,347.27239 763.68952,337.3185 C 747.21412,327.36461 732.11167,327.70785 732.11167,327.70785 C 732.11167,327.70785 736.23052,321.52957 736.57376,318.0972 C 736.917,314.66482 729.70901,309.51626 729.70901,309.51626 C 729.70901,309.51626 721.47131,304.71094 711.17418,302.30827 C 700.87706,299.90561 687.10466,296.81647 687.10466,296.81647 C 687.10466,296.81647 693.32584,293.94186 694.31264,292.39729 C 695.29945,290.85272 697.74502,286.39063 697.74502,286.39063 L 711.17418,270.38718 z "
     id="path5025"/>
    <path
     style="fill:#b48aed;fill-opacity:0.41818183;fill-rule:evenodd;stroke:none;stroke-width:1.00036657;stroke-linecap:butt;stroke-linejoin:miter;stroke-miterlimit:4;stroke-dasharray:none;stroke-opacity:1"
     d="M 338.03337,619.51862 C 338.03337,619.51862 353.47905,633.9346 366.86532,636.6805 C 380.25158,639.4264 411.82943,633.59136 415.94828,631.87517 C 420.06713,630.15899 449.58556,627.41309 449.58556,627.41309 C 449.58556,627.41309 479.44722,617.80244 485.96873,610.25121 C 492.49025,602.69999 497.98205,589.65696 497.98205,589.65696 C 497.98205,589.65696 514.80068,587.59754 523.72486,583.13545 C 532.64903,578.67336 542.25968,573.86804 542.25968,573.86804 C 542.25968,573.86804 557.70537,569.74919 563.54041,565.97357 C 569.37545,562.19796 580.70229,552.58731 580.70229,552.58731 C 580.70229,552.58731 581.732,555.33321 591.68589,558.07911 C 601.63977,560.82501 639.05266,553.61702 639.05266,553.61702 C 639.05266,553.61702 672.00346,551.90083 690.19505,547.09551 C 708.38664,542.29018 710.7893,536.11191 710.7893,536.11191 C 710.7893,536.11191 727.2647,532.67953 737.56183,527.87421 C 747.85895,523.06888 757.81284,516.20413 757.81284,516.20413 C 757.81284,516.20413 780.12328,526.15802 796.94192,526.50126 C 813.76055,526.8445 819.25236,525.81478 826.46034,522.38241 C 833.66833,518.95003 838.47366,516.54737 838.47366,516.54737 C 838.47366,516.54737 873.14064,521.69593 896.82403,516.20413 C 920.50742,510.71233 939.04225,498.69902 946.25023,491.1478 C 953.45822,483.59657 965.1283,467.46441 968.21741,454.76462 C 971.30661,442.06483 972.33631,436.57303 972.33631,436.57303 C 972.33631,436.57303 979.88751,430.73799 979.88751,420.44087 C 979.88751,410.14374 975.08221,389.54949 975.08221,389.54949 C 975.08221,389.54949 979.88751,380.96856 979.88751,375.13352 C 979.88751,369.29848 975.08221,361.74725 968.90391,354.53927 C 962.72563,347.33128 956.20412,341.49624 956.20412,341.49624 C 956.20412,341.49624 953.80146,323.64789 948.30966,313.35077 C 942.81786,303.05364 929.77483,292.41328 929.77483,292.41328 C 929.77483,292.41328 931.14778,282.11615 928.74512,275.59464 C 926.34246,269.07313 915.35886,259.46248 909.86706,257.74629 C 904.37526,256.0301 902.31583,254.31391 902.31583,254.31391 L 846.71136,309.23192 C 846.71136,309.23192 832.29538,323.64789 830.92243,326.73703 C 829.54948,329.82617 802.77695,367.23905 802.77695,367.23905 C 802.77695,367.23905 801.74724,378.90913 792.13659,387.83331 C 782.52594,396.75748 748.88867,397.78719 748.88867,397.78719 C 748.88867,397.78719 747.85895,396.41424 740.9942,399.16014 C 734.12945,401.90604 732.07003,404.30871 732.07003,404.30871 C 732.07003,404.30871 732.07003,417.69497 731.38355,423.53001 C 730.69708,429.36504 725.89175,432.79742 725.89175,432.79742 L 677.66166,476.43103 C 677.66166,476.43103 669.40967,476.43103 658.73062,477.88726 C 648.05158,479.3435 639.31418,482.74137 629.60595,484.19761 C 619.89773,485.65384 611.64574,479.82891 611.64574,479.82891 L 594.17094,480.79973 C 594.17094,480.79973 587.86059,489.53713 578.15237,490.02254 C 568.44415,490.50795 551.94017,493.42042 544.659,490.99336 C 537.37784,488.56631 543.20277,492.4496 543.20277,492.4496 C 543.20277,492.4496 533.00914,496.33289 525.72797,499.73076 C 518.4468,503.12864 514.56351,510.40981 514.56351,510.40981 L 490.29296,514.2931 L 453.40171,539.04907 C 453.40171,539.04907 449.51842,547.78647 441.26643,554.58222 C 433.01444,561.37798 416.99587,572.05702 416.99587,572.05702 C 416.99587,572.05702 401.94813,601.18169 390.78367,606.0358 C 379.61922,610.88992 344.66961,604.09416 344.66961,604.09416 L 322.3407,594.38594 C 322.3407,594.38594 326.22399,605.55039 329.62187,610.88992 C 333.01975,616.22944 338.35927,619.87002 338.03337,619.51862 z "
     id="path4023" />
  </g>
  <g id="Brain" style="fill:none;fill-rule:evenodd;stroke:black;stroke-width:2">
    <path
       d="M 436,56 C 405,54 370,60 340,77 C 325,78 309,86 296,92 C 267,94 242,104 220,121 C 201,127 181,134 164,149 C 132,168 111,190 101,217 C 80,224 69,240 69,262 C 54,275 44,292 42,314 C 34,331 35,348 40,365 C 39,371 35,378 40,384 C 35,395 37,406 42,417 C 45,417 46,430 50,432 C 52,461 59,480 68,494 C 78,510 88,524 104,528 C 120,560 186,558 266,547 C 273,558 280,566 287,574 C 298,597 316,611 338,620 C 356,636 378,647 419,631 C 458,629 489,620 499,590 C 509,589 522,584 543,574 C 558,571 570,563 581,554 C 592,562 615,558 638,554 C 674,552 699,547 711,537 C 728,532 745,527 758,517 C 788,527 816,531 839,517 C 906,524 959,510 973,438 C 984,426 981,408 976,390 C 987,372 972,357 957,341 C 955,320 945,305 930,292 C 932,278 927,266 907,256 C 899,232 885,217 868,206 C 868,181 847,165 816,153 C 792,124 762,103 727,88 C 713,77 699,76 685,78 C 669,58 641,53 603,60 C 593,53 582,53 572,53 C 549,51 529,50 512,50 C 483,44 459,48 436,56 z "
       style="stroke-width:4"
       id="path2179" />
    <path
       d="M 149,168 C 138,178 138,185 145,189"
       id="path2181" />
    <path
       d="M 178,155 C 227,121 263,118 288,135"
       id="path2183" />
    <path
       d="M 254,184 C 273,170 281,143 296,124 C 316,94 354,119 378,117"
       id="path2185" />
    <path
       d="M 129,215 C 117,229 132,241 132,254"
       id="path2187" />
    <path
       d="M 91,256 C 108,247 104,227 120,213 C 131,199 167,198 180,179 C 194,158 212,151 233,155"
       id="path2189" />
    <path
       d="M 217,174 C 228,163 236,152 243,141"
       id="path2191" />
    <path
       d="M 285,176 C 296,168 301,158 300,147"
       id="path2193" />
    <path
       d="M 274,108 C 282,111 293,109 310,97"
       id="path2195" />
    <path
       d="M 297,93 C 293,98 290,103 290,107"
       id="path2197" />
    <path
       d="M 341,77 C 343,81 346,84 349,84"
       id="path2199" />
    <path
       d="M 369,65 C 365,70 362,74 360,78"
       id="path2201" />
    <path
       d="M 457,64 C 449,65 441,63 433,56"
       id="path2203" />
    <path
       d="M 471,124 C 461,122 453,118 457,95 C 458,75 442,69 414,71 C 388,73 364,75 353,81 C 344,90 334,99 322,109"
       id="path2205" />
    <path
       d="M 357,89 C 350,96 348,104 350,112"
       id="path2207" />
    <path
       d="M 431,82 C 421,99 407,114 397,123 C 376,145 362,169 384,195"
       id="path2209" />
    <path
       d="M 372,169 C 361,170 353,163 346,153 C 341,143 327,143 321,124"
       id="path2211" />
    <path
       d="M 454,129 C 405,131 406,162 382,173"
       id="path2213" />
    <path
       d="M 486,178 C 490,162 479,156 454,157 C 442,158 430,158 421,153"
       id="path2215" />
    <path
       d="M 461,182 C 435,191 410,194 384,196 C 372,195 355,234 353,247"
       id="path2217" />
    <path
       d="M 48,324 C 55,313 62,307 71,304"
       id="path2219" />
    <path
       d="M 71,311 C 67,294 98,289 107,279 C 113,274 118,255 149,248 C 166,242 180,224 200,206 C 208,197 223,193 240,192"
       id="path2221" />
    <path
       d="M 211,167 C 202,179 195,194 205,201"
       id="path2223" />
    <path
       d="M 169,236 C 167,248 167,260 168,271"
       id="path2225" />
    <path
       d="M 199,257 C 192,268 180,281 185,296"
       id="path2227" />
    <path
       d="M 175,292 C 193,297 203,315 216,320"
       id="path2229" />
    <path
       d="M 184,282 C 178,272 169,267 157,276 C 140,286 124,297 107,307 C 91,321 86,335 93,349"
       id="path2231" />
    <path
       d="M 49,352 C 62,337 76,330 90,331"
       id="path2233" />
    <path
       d="M 71,335 C 68,332 63,331 57,330"
       id="path2235" />
    <path
       d="M 103,319 C 127,306 139,309 143,322 C 153,376 169,386 184,400"
       id="path2237" />
    <path
       d="M 156,299 C 152,303 146,309 140,316"
       id="path2239" />
    <path
       d="M 206,268 C 224,252 249,235 202,219"
       id="path2241" />
    <path
       d="M 229,242 C 258,241 274,247 275,263 C 276,274 269,285 270,297"
       id="path2243" />
    <path
       d="M 350,386 C 375,362 390,340 373,302 C 367,283 360,265 353,247 C 322,247 295,252 275,262"
       id="path2245" />
    <path
       d="M 323,276 C 308,290 276,299 278,324 C 279,371 296,381 307,392 C 311,395 315,407 325,419"
       id="path2247" />
    <path
       d="M 256,149 C 251,168 230,188 249,210 C 256,205 275,205 284,203 C 300,193 343,210 360,198"
       id="path2249" />
    <path
       d="M 436,269 C 444,239 429,221 400,212"
       id="path2251" />
    <path
       d="M 453,346 C 439,344 409,323 413,302 C 410,277 395,268 394,258 C 392,253 399,241 393,234"
       id="path2253" />
    <path
       d="M 308,393 C 316,380 316,368 296,354"
       id="path2255" />
    <path
       d="M 243,275 C 244,289 245,302 251,316"
       id="path2257" />
    <path
       d="M 278,324 C 262,319 249,312 244,322 C 239,326 225,332 229,350 C 228,358 199,362 188,367"
       id="path2259" />
    <path
       d="M 209,369 C 200,376 203,390 199,400 C 201,421 225,425 250,428"
       id="path2261" />
    <path
       d="M 96,366 C 102,372 113,377 137,380 C 147,382 146,389 169,396 C 178,397 189,398 199,400"
       id="path2263" />
    <path
       d="M 111,336 C 105,342 92,347 91,355 C 89,363 83,371 78,379 C 70,394 65,406 66,416 C 67,437 90,448 102,461"
       id="path2265" />
    <path
       d="M 47,371 C 44,369 42,367 40,365"
       id="path2267" />
    <path
       d="M 70,362 C 63,369 56,376 51,385 C 47,396 48,405 46,424"
       id="path2269" />
    <path
       d="M 51,387 C 51,384 49,382 47,380"
       id="path2271" />
    <path
       d="M 51,432 C 53,426 62,420 57,413"
       id="path2273" />
    <path
       d="M 70,495 C 72,491 71,486 73,484"
       id="path2275" />
    <path
       d="M 104,528 C 110,518 111,512 107,511"
       id="path2277" />
    <path
       d="M 114,515 L 109,512"
       id="path2279" />
    <path
       d="M 87,449 C 77,469 88,483 115,492"
       id="path2281" />
    <path
       d="M 84,394 C 106,406 129,431 149,438 C 171,446 203,474 222,461"
       id="path2283" />
    <path
       d="M 250,446 C 235,449 217,461 217,469 C 218,483 262,493 280,489"
       id="path2285" />
    <path
       d="M 104,471 C 111,477 121,479 140,470 C 160,464 167,471 181,475"
       id="path2287" />
    <path
       d="M 219,473 C 195,471 183,472 175,480 C 161,489 147,487 142,488 C 136,490 119,507 95,495"
       id="path2289" />
    <path
       d="M 154,547 C 187,549 222,548 258,543"
       id="path2291" />
    <path
       d="M 192,507 C 184,505 180,501 180,494 C 179,508 171,511 165,517 C 158,522 159,530 153,537"
       id="path2293" />
    <path
       d="M 228,488 C 208,488 189,487 175,480"
       id="path2295" />
    <path
       d="M 217,488 C 220,505 243,507 255,513"
       id="path2297" />
    <path
       d="M 209,503 C 211,499 217,499 221,496"
       id="path2299" />
    <path
       d="M 237,500 C 242,496 248,494 252,489"
       id="path2301" />
    <path
       d="M 266,501 C 257,486 285,481 292,465"
       id="path2303" />
    <path
       d="M 264,406 C 280,419 303,426 317,430"
       id="path2305" />
    <path
       d="M 249,468 C 278,468 304,449 309,427 C 310,425 317,424 321,423"
       id="path2307" />
    <path
       d="M 498,63 C 503,58 510,53 521,50"
       id="path2309" />
    <path
       d="M 516,73 C 490,73 468,77 457,96"
       id="path2311" />
    <path
       d="M 489,91 C 495,95 499,99 499,104"
       id="path2313" />
    <path
       d="M 776,364 C 780,318 691,305 647,381 C 641,397 587,391 559,399 C 534,409 509,423 484,438 C 474,454 439,428 419,430 C 354,437 353,534 417,550"
       id="path2315" />
    <path
       d="M 536,327 C 537,347 515,386 548,404"
       id="path2317" />
    <path
       d="M 475,369 C 486,365 489,348 496,339"
       id="path2319" />
    <path
       d="M 453,394 C 448,405 454,409 465,410"
       id="path2321" />
    <path
       d="M 495,581 C 534,546 528,483 467,487 C 446,489 431,484 421,474"
       id="path2323" />
    <path
       d="M 525,473 C 539,498 553,492 570,492 C 600,491 617,461 596,429"
       id="path2325" />
    <path
       d="M 546,492 C 533,496 523,502 516,510"
       id="path2327" />
    <path
       d="M 493,514 C 481,518 469,531 455,540 C 443,558 426,565 417,575 C 407,590 402,621 345,604"
       id="path2329" />
    <path
       d="M 494,591 C 466,607 421,593 415,600"
       id="path2331" />
    <path
       d="M 567,452 C 557,449 551,435 546,428"
       id="path2333" />
    <path
       d="M 392,411 C 414,423 433,420 452,405"
       id="path2335" />
    <path
       d="M 418,418 C 410,430 401,435 390,434 C 378,432 361,445 341,461 C 325,474 319,488 315,503 C 312,521 309,529 305,536"
       id="path2337" />
    <path
       d="M 327,442 C 325,454 329,462 337,465"
       id="path2339" />
    <path
       d="M 314,587 C 304,584 292,574 284,571"
       id="path2341" />
    <path
       d="M 356,542 C 318,560 310,588 339,621"
       id="path2343" />
    <path
       d="M 333,503 C 331,516 340,525 349,533 C 357,537 357,548 359,551 C 371,568 373,579 374,589"
       id="path2345" />
    <path
       d="M 611,358 C 625,342 650,355 669,353"
       id="path2347" />
    <path
       d="M 562,373 C 574,363 579,350 575,332"
       id="path2349" />
    <path
       d="M 586,365 C 582,362 578,359 575,355"
       id="path2351" />
    <path
       d="M 581,554 C 577,544 580,534 590,525"
       id="path2353" />
    <path
       d="M 562,548 C 565,543 575,542 581,539"
       id="path2355" />
    <path
       d="M 639,509 C 636,528 649,537 677,538"
       id="path2357" />
    <path
       d="M 630,540 C 635,520 622,501 596,482"
       id="path2359" />
    <path
       d="M 631,528 C 634,526 637,524 640,522"
       id="path2361" />
    <path
       d="M 683,467 C 668,464 656,458 656,442 C 653,428 635,414 643,386"
       id="path2363" />
    <path
       d="M 612,480 C 624,492 648,477 670,477 C 724,475 738,504 712,536"
       id="path2365" />
    <path
       d="M 724,512 C 750,511 768,501 779,480"
       id="path2367" />
    <path
       d="M 758,518 L 749,508"
       id="path2369" />
    <path
       d="M 798,506 C 814,506 828,509 839,518"
       id="path2371" />
    <path
       d="M 830,500 C 825,503 820,505 815,507"
       id="path2373" />
    <path
       d="M 856,507 C 853,490 864,482 865,472"
       id="path2375" />
    <path
       d="M 675,403 C 683,410 693,416 691,424 C 694,441 715,443 727,445 C 751,455 773,466 760,486"
       id="path2377" />
    <path
       d="M 549,310 C 536,306 524,298 512,284"
       id="path2379" />
    <path
       d="M 588,152 C 579,158 569,170 555,179 C 541,187 526,194 519,219 C 517,241 519,256 514,270 C 510,283 508,295 514,304"
       id="path2381" />
    <path
       d="M 524,140 C 557,148 568,158 565,171"
       id="path2383" />
    <path
       d="M 727,434 C 733,424 733,415 733,405 C 743,389 797,411 804,366"
       id="path2385" />
    <path
       d="M 728,364 C 733,375 734,389 733,405"
       id="path2387" />
    <path
       d="M 512,183 C 518,192 521,201 523,209"
       id="path2389" />
    <path
       d="M 791,478 C 807,454 807,421 836,411"
       id="path2391" />
    <path
       d="M 753,457 C 755,451 758,446 761,442"
       id="path2393" />
    <path
       d="M 803,329 C 796,325 793,318 796,306"
       id="path2395" />
    <path
       d="M 773,346 C 781,341 788,331 795,318"
       id="path2397" />
    <path
       d="M 815,269 C 816,294 837,296 833,324"
       id="path2399" />
    <path
       d="M 762,322 C 763,295 777,279 794,265 C 804,254 816,248 809,213 C 813,192 838,169 816,154 C 790,142 768,118 728,117"
       id="path2401" />
    <path
       d="M 546,288 C 558,267 593,255 596,247 C 604,226 598,205 599,185 C 605,168 621,161 639,156 C 667,124 697,120 728,144"
       id="path2403" />
    <path
       d="M 600,220 C 596,215 591,212 586,209"
       id="path2405" />
    <path
       d="M 595,250 C 604,245 612,243 621,244"
       id="path2407" />
    <path
       d="M 505,116 C 556,121 620,129 624,161"
       id="path2409" />
    <path
       d="M 629,123 C 622,113 605,108 597,101"
       id="path2411" />
    <path
       d="M 597,77 C 604,89 608,100 615,112"
       id="path2413" />
    <path
       d="M 603,60 C 615,77 638,78 639,100"
       id="path2415" />
    <path
       d="M 634,85 C 636,82 638,80 640,77"
       id="path2417" />
    <path
       d="M 674,131 C 662,102 636,103 623,96"
       id="path2419" />
    <path
       d="M 659,100 C 675,106 683,116 683,129"
       id="path2421" />
    <path
       d="M 635,67 C 655,72 672,80 686,94"
       id="path2423" />
    <path
       d="M 671,106 C 676,93 699,90 728,89"
       id="path2425" />
    <path
       d="M 719,155 C 728,132 779,142 808,164"
       id="path2427" />
    <path
       d="M 625,180 C 641,172 660,170 679,181"
       id="path2429" />
    <path
       d="M 695,140 C 680,155 666,170 685,187 C 720,221 741,240 711,270"
       id="path2431" />
    <path
       d="M 782,162 C 791,175 791,190 785,204"
       id="path2433" />
    <path
       d="M 727,201 C 741,210 749,224 751,243 C 761,290 748,301 734,311"
       id="path2435" />
    <path
       d="M 641,293 C 671,300 693,301 698,285"
       id="path2437" />
    <path
       d="M 674,298 C 681,299 688,302 693,306"
       id="path2439" />
    <path
       d="M 732,327 C 743,312 732,304 686,296"
       id="path2441" />
    <path
       d="M 740,213 C 757,200 760,179 770,162"
       id="path2443" />
    <path
       d="M 809,214 C 830,212 846,220 859,237"
       id="path2445" />
    <path
       d="M 841,199 C 847,201 857,204 869,207"
       id="path2447" />
    <path
       d="M 912,290 C 898,295 889,306 884,321 C 871,331 864,346 860,362"
       id="path2449" />
    <path
       d="M 962,422 C 969,425 973,430 973,438"
       id="path2451" />
    <path
       d="M 941,328 C 937,333 932,335 925,336 C 916,344 910,353 910,364 C 917,381 918,394 914,405"
       id="path2453" />
    <path
       d="M 913,350 C 913,344 911,337 906,331"
       id="path2455" />
    <path
       d="M 937,403 C 943,394 947,384 947,369 C 948,357 951,347 956,341"
       id="path2457" />
    <path
       d="M 947,378 C 957,379 960,385 959,393 C 966,399 969,408 972,416"
       id="path2459" />
    <path
       d="M 677,197 C 668,215 652,232 650,251 C 634,286 579,283 566,310"
       id="path2461" />
    <path
       d="M 771,522 C 733,536 691,552 658,583"
       id="path2463" />
    <path
       d="M 663,571 C 675,562 687,553 699,544"
       id="path2465" />
    <path
       d="M 788,526 C 754,537 718,551 684,569"
       id="path2467" />
    <path
       d="M 811,527 C 759,544 702,568 651,592"
       id="path2469" />
    <path
       d="M 889,523 C 845,537 666,600 647,600 M 646,596 C 721,565 801,541 877,519"
       id="path2471" />
    <path
       d="M 891,544 C 845,561 693,600 657,604 C 736,578 813,557 890,533"
       id="path2473" />
    <path
       d="M 669,552 C 657,604 629,608 597,599 C 584,589 571,589 558,589"
       id="path2491" />
    <path
       d="M 644,598 C 653,583 657,569 659,554"
       id="path2493" />
    <path
       d="M 635,601 C 644,589 649,573 651,554"
       id="path2495" />
    <path
       d="M 623,603 C 637,591 642,575 641,554"
       id="path2497" />
    <path
       d="M 616,602 C 626,589 633,574 634,556"
       id="path2499" />
    <path
       d="M 607,602 C 617,589 625,574 629,557"
       id="path2501" />
    <path
       d="M 600,600 L 623,558"
       id="path2503" />
    <path
       d="M 594,598 C 600,585 604,570 612,560"
       id="path2505" />
    <path
       d="M 590,594 C 595,583 597,570 601,560"
       id="path2507" />
    <path
       d="M 585,593 C 586,581 589,570 592,559"
       id="path2509" />
    <path
       d="M 579,591 L 583,556"
       id="path2511" />
    <path
       d="M 575,590 C 573,581 572,572 572,563"
       id="path2513" />
    <path
       d="M 567,589 C 563,582 563,575 564,568"
       id="path2515" />
    <path
       d="M 561,589 L 557,571"
       id="path2517" />
    <path
       d="M 588,593 C 586,604 591,613 600,621"
       id="path2519" />
    <path
       d="M 578,591 C 576,605 580,619 592,628"
       id="path2521" />
    <path
       d="M 564,590 C 567,609 576,624 590,633"
       id="path2523" />
    <path
       d="M 590,633 C 599,623 607,611 616,603"
       id="path2525" />
    <path
       d="M 869,551 C 841,580 804,604 758,623 C 719,620 680,607 641,599"
       id="path2527" />
    <path
       d="M 677,601 C 709,606 740,611 772,617"
       id="path2529" />
    <path
       d="M 786,610 C 757,605 729,600 701,596"
       id="path2531" />
    <path
       d="M 727,590 C 752,594 773,597 797,604"
       id="path2533" />
    <path
       d="M 746,585 C 768,585 789,590 808,598"
       id="path2535" />
    <path
       d="M 774,578 C 789,580 805,584 820,591"
       id="path2537" />
    <path
       d="M 832,583 C 823,582 812,583 802,583"
       id="path2539" />
    <path
       d="M 843,574 C 823,578 805,578 790,574"
       id="path2541" />
    <path
       d="M 804,570 C 813,572 832,570 851,567 C 865,563 878,558 891,552"
       id="path2543" />
    <path
       d="M 594,630 C 628,654 679,671 738,676"
       id="path2545" />
    <path
       d="M 597,624 C 638,655 694,666 756,670"
       id="path2547" />
    <path
       d="M 601,621 C 667,660 723,668 775,659"
       id="path2549" />
    <path
       d="M 604,616 C 669,652 729,661 786,653"
       id="path2551" />
    <path
       d="M 608,611 C 678,645 741,654 801,647"
       id="path2553" />
    <path
       d="M 613,607 C 676,638 742,648 811,641"
       id="path2555" />
    <path
       d="M 624,603 C 691,635 756,636 821,634"
       id="path2557" />
    <path
       d="M 758,623 C 765,632 790,632 829,626"
       id="path2559" />
    <path
       d="M 770,618 C 776,627 804,624 839,619"
       id="path2561" />
    <path
       d="M 788,610 C 801,614 834,606 871,596"
       id="path2563" />
    <path
       d="M 777,615 C 786,621 820,616 857,608"
       id="path2565" />
    <path
       d="M 885,579 C 844,597 813,607 797,605"
       id="path2567" />
    <path
       d="M 808,598 C 830,597 859,585 888,573"
       id="path2569" />
    <path
       d="M 822,590 C 844,585 867,576 890,566"
       id="path2571" />
    <path
       d="M 891,558 C 873,567 855,574 836,580"
       id="path2573" />
    <path
       d="M 634,601 C 679,617 727,627 774,630"
       id="path2575" />
    <path
       d="M 884,320 C 882,290 835,243 807,252 C 830,236 890,275 884,320 z "
       style="fill:black;stroke-width:1"
       id="path2577" />
    <path
       d="M 264,547 C 260,519 273,494 294,473 C 317,455 312,429 322,421 C 336,394 373,377 425,368 C 441,349 462,339 491,340 C 511,323 529,307 566,307 C 568,316 571,325 575,333 C 571,328 565,322 561,315 C 528,312 505,331 492,347 C 469,342 449,349 430,371 C 377,381 339,397 326,424 C 319,448 311,468 296,476 C 279,494 264,520 274,558 C 271,555 268,550 264,547 z "
       style="fill:black;stroke-width:1"
       id="path2579" />
    <path
       d="M 567,54 C 558,60 562,75 556,86 C 508,89 481,107 490,140 C 501,153 503,162 496,168 C 482,176 477,197 472,220 C 462,233 456,254 456,276 C 455,295 427,306 431,322 C 433,322 434,322 435,322 C 435,315 439,308 446,302 C 455,297 459,285 462,269 C 461,255 465,241 476,226 C 481,207 483,179 503,170 C 515,165 508,152 497,136 C 484,104 519,96 556,91 C 571,87 567,63 577,55 C 574,54 570,54 567,54 z "
       style="fill:black;stroke-width:1"
       id="path2581" />
    <path
       d="M 530,160 C 521,157 513,158 506,164"
       id="path2583" />
    <path
       d="M 903,251 C 896,259 888,268 880,276 C 887,276 896,271 908,256 L 903,251 z "
       style="fill:black;stroke-width:1"
       id="path2599" />
    <path
       d="M 881,277 C 864,291 847,306 835,321 C 826,333 825,350 828,369 C 830,383 832,397 835,410 C 839,410 842,410 846,411 C 862,427 902,424 914,430 C 921,440 927,447 931,445 C 938,452 943,460 946,468 C 943,458 949,458 928,434 C 919,425 898,420 865,415 C 842,407 837,393 835,375 C 831,358 829,342 835,325 C 848,309 864,293 881,277 z "
       style="fill:black;stroke-width:1"
       id="path2601" />
    <path
       d="M 838,407 C 841,430 849,451 866,467 C 900,468 921,487 951,488 L 944,495 C 930,496 917,484 904,482 C 893,478 871,477 861,472 C 846,451 837,429 838,407 z "
       style="fill:black;stroke-width:1"
       id="path2609" />
  </g>
  <g id="arrows">
    <path style="fill:url(#linearGradient13869);fill-opacity:1;fill-rule:evenodd;stroke:#000000;stroke-width:2.00273609;stroke-linecap:butt;stroke-linejoin:miter;stroke-miterlimit:4;stroke-dasharray:none;stroke-opacity:1"
       d="M 880.72248,376.40099 C 880.72248,376.40099 870.44648,393.56137 855.34406,408.66382 C 840.24161,423.76627 836.80254,434.76619 798.35996,458.10636 C 761.82152,480.29042 517.14183,546.38808 492.72367,552.95469 L 489.5631,541.97093 L 454.13971,572.54395 L 500.23393,578.86508 L 497.73051,570.19699 C 513.6727,567.24724 591.05683,552.913 615.76676,547.35328 C 643.22577,541.175 740.6977,517.14599 775.70795,507.53531 C 809.78573,498.18059 843.73245,481.07171 863.56029,464.9616 C 885.52749,447.11325 912.29688,406.59849 912.29686,406.59849 L 880.72248,376.40099 z "
       id="path12889"/>
    <path style="fill:url(#linearGradient14853);fill-opacity:1;fill-rule:evenodd;stroke:#000000;stroke-width:2.00273609;stroke-linecap:butt;stroke-linejoin:miter;stroke-miterlimit:4;stroke-dasharray:none;stroke-opacity:1"
       d="M 786.19525,128.53081 L 704.64635,130.47096 L 750.27118,179.97609 L 762.60052,162.29568 C 768.84953,166.48479 781.28585,173.94258 795.89825,182.40239 C 832.7895,203.76048 852.02137,247.67157 861.92221,268.3342 C 873.08666,291.63393 876.47484,362.47542 876.47484,362.47541 L 922.09967,355.68488 C 922.09967,355.68488 919.20814,294.5293 887.17098,227.54256 C 861.93141,174.7689 805.5856,154.97246 776.68226,142.14315 L 786.19525,128.53081 z "
       id="path13873"/>
  </g>
</svg>
